<svg width="22" height="22" viewBox="0 0 22 22" fill="none" xmlns="http://www.w3.org/2000/svg">
<path d="M6.54994 0.651994H3.60494C2.73307 0.652524 1.89706 0.999107 1.28056 1.61561C0.664055 2.23212 0.317471 3.06812 0.316941 3.93999V6.88399C0.316941 7.75656 0.663565 8.59338 1.28056 9.21037C1.89755 9.82737 2.73438 10.174 3.60694 10.174H6.54994C7.4225 10.174 8.25933 9.82737 8.87632 9.21037C9.49332 8.59338 9.83994 7.75656 9.83994 6.88399V3.93999C9.83941 3.06778 9.49255 2.23147 8.87562 1.61491C8.25868 0.998343 7.42216 0.651994 6.54994 0.651994ZM8.19494 6.88399C8.19494 7.32028 8.02163 7.73869 7.71313 8.04718C7.40463 8.35568 6.98622 8.52899 6.54994 8.52899H3.60494C3.16901 8.52846 2.75111 8.35492 2.44304 8.04648C2.13498 7.73804 1.96194 7.31993 1.96194 6.88399V3.93999C1.96247 3.50441 2.13574 3.08681 2.44375 2.7788C2.75176 2.47079 3.16935 2.29752 3.60494 2.29699H6.54994C6.98588 2.29699 7.40399 2.47003 7.71243 2.7781C8.02087 3.08616 8.19441 3.50406 8.19494 3.93999V6.88399ZM18.0639 0.651994H15.1179C14.2454 0.651994 13.4086 0.998618 12.7916 1.61561C12.1746 2.23261 11.8279 3.06943 11.8279 3.94199V6.88399C11.8279 7.75656 12.1746 8.59338 12.7916 9.21037C13.4086 9.82737 14.2454 10.174 15.1179 10.174H18.0609C18.9335 10.174 19.7703 9.82737 20.3873 9.21037C21.0043 8.59338 21.3509 7.75656 21.3509 6.88399V3.93999C21.3509 3.06743 21.0043 2.23061 20.3873 1.61361C19.7703 0.996618 18.9335 0.649994 18.0609 0.649994L18.0639 0.651994ZM6.54994 12.164H3.60494C2.73238 12.164 1.89555 12.5106 1.27856 13.1276C0.661565 13.7446 0.314941 14.5814 0.314941 15.454V18.397C0.314941 19.2696 0.661565 20.1064 1.27856 20.7234C1.89555 21.3404 2.73238 21.687 3.60494 21.687H6.54994C7.4225 21.687 8.25933 21.3404 8.87632 20.7234C9.49332 20.1064 9.83994 19.2696 9.83994 18.397V15.454C9.83994 14.5814 9.49332 13.7446 8.87632 13.1276C8.25933 12.5106 7.4225 12.164 6.54994 12.164V12.164ZM18.0639 12.164H15.1179C14.2454 12.164 13.4086 12.5106 12.7916 13.1276C12.1746 13.7446 11.8279 14.5814 11.8279 15.454V18.397C11.8279 19.2696 12.1746 20.1064 12.7916 20.7234C13.4086 21.3404 14.2454 21.687 15.1179 21.687H18.0609C18.9335 21.687 19.7703 21.3404 20.3873 20.7234C21.0043 20.1064 21.3509 19.2696 21.3509 18.397V15.454C21.3509 14.5814 21.0043 13.7446 20.3873 13.1276C19.7703 12.5106 18.9335 12.164 18.0609 12.164H18.0639ZM19.7049 18.396C19.7047 18.8314 19.5318 19.249 19.2242 19.5571C18.9166 19.8653 18.4994 20.0389 18.0639 20.04H15.1179C14.6817 20.04 14.2632 19.8667 13.9548 19.5582C13.6463 19.2497 13.4729 18.8313 13.4729 18.395V15.454C13.4729 15.0177 13.6463 14.5993 13.9548 14.2908C14.2632 13.9823 14.6817 13.809 15.1179 13.809H18.0609C18.497 13.8093 18.9152 13.9827 19.2235 14.2912C19.5318 14.5996 19.7049 15.0179 19.7049 15.454V18.396Z" fill="#1977F3"/>
</svg>
