<svg width="14" height="11" viewBox="0 0 14 11" fill="none" xmlns="http://www.w3.org/2000/svg">
<path d="M11.493 1.764H9.6V1.57C9.59974 1.15369 9.43424 0.754509 9.13986 0.460135C8.84549 0.16576 8.44631 0.000264912 8.03 0H5.03C4.61369 0.000264912 4.21451 0.16576 3.92014 0.460135C3.62576 0.754509 3.46026 1.15369 3.46 1.57V1.764H1.57C1.15352 1.76426 0.754185 1.9299 0.459782 2.22449C0.165378 2.51908 -8.4375e-08 2.91852 0 3.335L0 9.035C0.000264912 9.45131 0.16576 9.85049 0.460135 10.1449C0.75451 10.4392 1.15369 10.6047 1.57 10.605H11.493C11.9093 10.6047 12.3085 10.4392 12.6029 10.1449C12.8972 9.85049 13.0627 9.45131 13.063 9.035V3.335C13.063 2.91852 12.8976 2.51908 12.6032 2.22449C12.3088 1.9299 11.9095 1.76426 11.493 1.764ZM6.531 8.978C5.94459 8.97741 5.37152 8.803 4.8842 8.47682C4.39689 8.15064 4.01719 7.68732 3.7931 7.14542C3.56902 6.60352 3.51059 6.00736 3.62521 5.43226C3.73983 4.85717 4.02235 4.32895 4.43708 3.91437C4.8518 3.49979 5.38011 3.21744 5.95524 3.10302C6.53037 2.98859 7.12652 3.04722 7.66835 3.27149C8.21017 3.49576 8.67336 3.87561 8.99937 4.36304C9.32539 4.85046 9.4996 5.42359 9.5 6.01C9.49973 6.79725 9.18681 7.55217 8.63005 8.10875C8.07328 8.66533 7.31825 8.978 6.531 8.978ZM8.1 6.01C8.1 6.32052 8.00792 6.62406 7.83541 6.88225C7.66289 7.14043 7.41769 7.34166 7.13081 7.46049C6.84393 7.57932 6.52826 7.61041 6.22371 7.54983C5.91916 7.48925 5.63941 7.33973 5.41984 7.12016C5.20027 6.90059 5.05075 6.62084 4.99017 6.31629C4.92959 6.01174 4.96068 5.69607 5.07951 5.40919C5.19834 5.12231 5.39957 4.87711 5.65775 4.70459C5.91594 4.53208 6.21948 4.44 6.53 4.44C6.94615 4.44079 7.34502 4.60646 7.63928 4.90072C7.93354 5.19498 8.09921 5.59385 8.1 6.01Z" fill="#63C48C"/>
</svg>
