<svg width="24" height="27" viewBox="0 0 24 27" fill="none" xmlns="http://www.w3.org/2000/svg">
<path opacity="100" d="M21.74 9.424L13.367 1.7C12.8699 1.24747 12.2218 0.996674 11.5495 0.996674C10.8772 0.996674 10.2291 1.24747 9.732 1.7L1.361 9.424C0.530577 10.2473 0.044071 11.3555 0 12.524V24.1C0.000529688 24.7807 0.27115 25.4333 0.752441 25.9146C1.23373 26.3959 1.88635 26.6665 2.567 26.667H8.683V20.736H14.473V26.667H20.53C20.8674 26.6675 21.2016 26.6015 21.5134 26.4727C21.8253 26.344 22.1087 26.1549 22.3474 25.9165C22.5861 25.6781 22.7754 25.3949 22.9046 25.0832C23.0337 24.7715 23.1001 24.4374 23.1 24.1V12.521C23.0564 11.3534 22.5702 10.2462 21.74 9.424V9.424ZM20.529 24.1H21.739L21.048 11.311L11.473 2.917L3.602 10.495C0.166999 10.5 2.567 24.1 2.567 24.1V12.521C2.61148 12.0711 2.79858 11.6471 3.101 11.311L11.473 3.59C11.4961 3.57498 11.523 3.56699 11.5505 3.56699C11.578 3.56699 11.6049 3.57498 11.628 3.59L20 11.311C20.3028 11.6468 20.49 12.0709 20.534 12.521C20.5333 20.2403 20.5317 24.1 20.529 24.1Z" fill="#1977F3"/>
</svg>
