<svg width="33" height="19" viewBox="0 0 33 19" fill="none" xmlns="http://www.w3.org/2000/svg">
<path d="M9.25 18.5C14.3586 18.5 18.5 14.3586 18.5 9.25C18.5 4.14137 14.3586 0 9.25 0C4.14137 0 0 4.14137 0 9.25C0 14.3586 4.14137 18.5 9.25 18.5Z" fill="#1977F3"/>
<path d="M9.25 17.5C13.8063 17.5 17.5 13.8063 17.5 9.25C17.5 4.69365 13.8063 1 9.25 1C4.69365 1 1 4.69365 1 9.25C1 13.8063 4.69365 17.5 9.25 17.5Z" stroke="white" stroke-width="2"/>
<path d="M23.545 18.5C28.6537 18.5 32.795 14.3586 32.795 9.25C32.795 4.14137 28.6537 0 23.545 0C18.4364 0 14.295 4.14137 14.295 9.25C14.295 14.3586 18.4364 18.5 23.545 18.5Z" fill="#F31954"/>
<path d="M23.545 17.5C28.1014 17.5 31.795 13.8063 31.795 9.25C31.795 4.69365 28.1014 1 23.545 1C18.9887 1 15.295 4.69365 15.295 9.25C15.295 13.8063 18.9887 17.5 23.545 17.5Z" stroke="white" stroke-width="2"/>
<path d="M10.799 6.30497C10.7433 6.17759 10.6475 6.07192 10.5262 6.00407C10.4049 5.93622 10.2647 5.90992 10.127 5.92918C9.98936 5.94844 9.86177 6.01221 9.76373 6.11075C9.66568 6.2093 9.60256 6.33721 9.584 6.47497C9.56918 6.81053 9.48616 7.13955 9.34 7.44197C9.15981 7.6672 8.90124 7.81613 8.616 7.85897C8.21374 7.95662 7.83656 8.13789 7.509 8.39097V12.358C7.88821 12.4906 8.28547 12.5644 8.687 12.577H10.738C10.9767 12.577 11.2056 12.4822 11.3744 12.3134C11.5432 12.1446 11.638 11.9157 11.638 11.677C11.6378 11.6361 11.6307 11.5955 11.617 11.557C11.7669 11.5027 11.8964 11.4037 11.988 11.2733C12.0796 11.1428 12.1289 10.9874 12.129 10.828C12.1299 10.7113 12.0883 10.5983 12.012 10.51C12.1271 10.4394 12.2221 10.3404 12.2879 10.2226C12.3538 10.1047 12.3882 9.97196 12.388 9.83697C12.3879 9.77432 12.376 9.71224 12.353 9.65397C12.5045 9.64085 12.6466 9.57503 12.7546 9.46796C12.8626 9.36089 12.9296 9.21935 12.944 9.06797C12.9509 8.97623 12.938 8.88408 12.906 8.79779C12.8741 8.71151 12.824 8.63312 12.759 8.56797C12.7003 8.50895 12.6305 8.46213 12.5536 8.4302C12.4767 8.39828 12.3943 8.38189 12.311 8.38197H10.499C10.6922 7.97482 10.8234 7.541 10.888 7.09497C10.9279 6.82839 10.8972 6.556 10.799 6.30497V6.30497Z" fill="white"/>
<path d="M5.70102 12.577H7.06502C7.08453 12.5772 7.10389 12.5736 7.12197 12.5663C7.14005 12.5589 7.15647 12.548 7.17027 12.5342C7.18406 12.5204 7.19496 12.504 7.2023 12.4859C7.20964 12.4678 7.21329 12.4485 7.21302 12.429V8.23797C7.21315 8.2185 7.20941 8.19919 7.20202 8.18117C7.19463 8.16316 7.18373 8.14679 7.16996 8.13302C7.15619 8.11925 7.13983 8.10835 7.12181 8.10096C7.10379 8.09357 7.08449 8.08984 7.06502 8.08997H5.70102C5.66194 8.09023 5.62455 8.10594 5.59701 8.13367C5.56947 8.1614 5.55402 8.19889 5.55402 8.23797V12.43C5.55402 12.469 5.5695 12.5063 5.59707 12.5339C5.62464 12.5615 5.66203 12.577 5.70102 12.577V12.577Z" fill="white"/>
<path d="M25.46 6.37315C25.13 6.37124 24.8036 6.44192 24.504 6.58016C24.2043 6.71841 23.9387 6.92085 23.726 7.17315C23.5147 6.91919 23.2494 6.71558 22.9494 6.57718C22.6494 6.43878 22.3224 6.36908 21.992 6.37315C21.3897 6.37315 20.8121 6.61242 20.3862 7.03832C19.9603 7.46421 19.721 8.04185 19.721 8.64415C19.721 10.7932 23.472 12.8922 23.621 12.9732C23.6508 12.9926 23.6855 13.0029 23.721 13.0029C23.7565 13.0029 23.7913 12.9926 23.821 12.9732C23.973 12.8922 27.721 10.8242 27.721 8.64415C27.721 8.04358 27.4831 7.46745 27.0594 7.04184C26.6357 6.61623 26.0606 6.3758 25.46 6.37315Z" fill="white"/>
</svg>
