<svg width="79" height="78" viewBox="0 0 79 78" fill="none" xmlns="http://www.w3.org/2000/svg">
<g filter="url(#filter0_d)">
<path d="M39.002 45C43.9725 45 48.002 40.9706 48.002 36C48.002 31.0294 43.9725 27 39.002 27C34.0314 27 30.002 31.0294 30.002 36C30.002 40.9706 34.0314 45 39.002 45Z" fill="#2D3F7B"/>
</g>
<path d="M41.699 37.641C41.645 37.641 41.591 37.641 41.537 37.641C41.0987 37.6428 40.6644 37.5566 40.26 37.3874C39.8557 37.2182 39.4894 36.9695 39.183 36.656C38.5535 36.0187 38.2024 35.1578 38.207 34.262C38.2063 33.757 38.3173 33.2581 38.532 32.801C38.6084 32.6521 38.6925 32.5072 38.784 32.367C38.7912 32.3554 38.795 32.342 38.7949 32.3283C38.7949 32.3146 38.791 32.3012 38.7837 32.2896C38.7764 32.2781 38.766 32.2688 38.7537 32.2628C38.7413 32.2569 38.7276 32.2545 38.714 32.256C37.8332 32.4082 37.0409 32.8834 36.4919 33.5886C35.9428 34.2939 35.6765 35.1786 35.745 36.0698C35.8135 36.961 36.2119 37.7946 36.8623 38.4076C37.5127 39.0207 38.3683 39.3692 39.262 39.385C39.7757 39.3846 40.2829 39.2712 40.7478 39.0527C41.2127 38.8343 41.6238 38.5162 41.952 38.121C42.0617 37.9952 42.162 37.8615 42.252 37.721C42.2594 37.7088 42.2632 37.6946 42.2629 37.6803C42.2626 37.666 42.2581 37.6521 42.2501 37.6402C42.2421 37.6283 42.2309 37.619 42.2178 37.6133C42.2046 37.6076 42.1901 37.6057 42.176 37.608C42.0181 37.631 41.8586 37.642 41.699 37.641Z" fill="white"/>
<defs>
<filter id="filter0_d" x="0.00195312" y="0" width="78" height="78" filterUnits="userSpaceOnUse" color-interpolation-filters="sRGB">
<feFlood flood-opacity="0" result="BackgroundImageFix"/>
<feColorMatrix in="SourceAlpha" type="matrix" values="0 0 0 0 0 0 0 0 0 0 0 0 0 0 0 0 0 0 127 0" result="hardAlpha"/>
<feOffset dy="3"/>
<feGaussianBlur stdDeviation="15"/>
<feColorMatrix type="matrix" values="0 0 0 0 0.396078 0 0 0 0 0.443137 0 0 0 0 0.564706 0 0 0 0.161 0"/>
<feBlend mode="normal" in2="BackgroundImageFix" result="effect1_dropShadow"/>
<feBlend mode="normal" in="SourceGraphic" in2="effect1_dropShadow" result="shape"/>
</filter>
</defs>
</svg>
