<svg width="19" height="21" viewBox="0 0 19 21" fill="none" xmlns="http://www.w3.org/2000/svg">
<path fill-rule="evenodd" clip-rule="evenodd" d="M7.84599 2.80698C6.42573 3.17387 5.16765 4.00229 4.26946 5.16203C3.37128 6.32178 2.88392 7.7471 2.88399 9.21398V13.624C2.88399 13.8188 2.80673 14.0057 2.66913 14.1437C2.53154 14.2817 2.34485 14.3595 2.14999 14.36C1.76013 14.36 1.38622 14.5149 1.11055 14.7905C0.834868 15.0662 0.679993 15.4401 0.679993 15.83C0.679993 16.2199 0.834868 16.5938 1.11055 16.8694C1.38622 17.1451 1.76013 17.3 2.14999 17.3H16.847C17.2369 17.3 17.6108 17.1451 17.8864 16.8694C18.1621 16.5938 18.317 16.2199 18.317 15.83C18.317 15.4401 18.1621 15.0662 17.8864 14.7905C17.6108 14.5149 17.2369 14.36 16.847 14.36C16.7504 14.3601 16.6547 14.3412 16.5655 14.3042C16.4762 14.2672 16.3952 14.213 16.327 14.1446C16.2588 14.0762 16.2047 13.995 16.168 13.9056C16.1313 13.8163 16.1126 13.7206 16.113 13.624V9.21398C16.1129 7.74714 15.6255 6.32191 14.7273 5.1622C13.8292 4.00248 12.5712 3.17402 11.151 2.80698V2.04798C11.151 1.60932 10.9767 1.18861 10.6665 0.878428C10.3564 0.568242 9.93566 0.393982 9.49699 0.393982C9.05833 0.393982 8.63762 0.568242 8.32744 0.878428C8.01725 1.18861 7.84299 1.60932 7.84299 2.04798L7.84599 2.80698ZM6.92699 18.036H12.073C12.073 18.7184 11.8019 19.3728 11.3194 19.8554C10.8368 20.3379 10.1824 20.609 9.49999 20.609C8.81759 20.609 8.16314 20.3379 7.68061 19.8554C7.19808 19.3728 6.92699 18.7184 6.92699 18.036Z" fill="white"/>
</svg>
