<svg width="19" height="19" viewBox="0 0 19 19" fill="none" xmlns="http://www.w3.org/2000/svg">
<path d="M8.7 16.4C10.5287 16.4005 12.2973 15.7468 13.686 14.557L16.208 17.079C16.3541 17.2238 16.5518 17.3046 16.7575 17.3037C16.9633 17.3028 17.1602 17.2201 17.305 17.074C17.4498 16.9279 17.5306 16.7302 17.5297 16.5245C17.5288 16.3187 17.4461 16.1218 17.3 15.977L14.778 13.436C15.838 12.0858 16.4097 10.4165 16.4 8.7C16.4 7.17709 15.9484 5.68837 15.1023 4.42211C14.2562 3.15585 13.0537 2.16893 11.6467 1.58613C10.2397 1.00334 8.69146 0.850851 7.19781 1.14796C5.70415 1.44506 4.33215 2.17842 3.25528 3.25528C2.17842 4.33215 1.44506 5.70415 1.14796 7.19781C0.850851 8.69146 1.00334 10.2397 1.58613 11.6467C2.16893 13.0537 3.15585 14.2562 4.42211 15.1023C5.68837 15.9484 7.17709 16.4 8.7 16.4ZM8.7 2.548C9.91636 2.548 11.1054 2.9087 12.1168 3.58447C13.1281 4.26024 13.9164 5.22074 14.3819 6.3445C14.8473 7.46827 14.9691 8.70483 14.7318 9.89781C14.4945 11.0908 13.9088 12.1866 13.0487 13.0467C12.1886 13.9068 11.0928 14.4925 9.89981 14.7298C8.70683 14.9671 7.47027 14.8453 6.3465 14.3799C5.22274 13.9144 4.26224 13.1261 3.58647 12.1148C2.91069 11.1034 2.55 9.91436 2.55 8.698C2.55159 7.06778 3.20018 5.50484 4.35329 4.35247C5.50641 3.2001 7.06978 2.55253 8.7 2.552V2.548Z" fill="white" stroke="white" stroke-width="2"/>
</svg>
