<svg width="28" height="24" viewBox="0 0 28 24" fill="none" xmlns="http://www.w3.org/2000/svg">
<path opacity="100" d="M22.22 17.566H12.252C11.5563 17.5686 10.8784 17.346 10.3196 16.9314C9.76089 16.5168 9.35129 15.9326 9.15205 15.266L5.77405 3.849C5.70931 3.64302 5.57965 3.46354 5.40445 3.33736C5.22925 3.21119 5.01792 3.14511 4.80205 3.149H2.16105C2.01076 3.15682 1.86045 3.13397 1.71927 3.08185C1.5781 3.02973 1.44901 2.94941 1.33986 2.8458C1.23072 2.74219 1.1438 2.61745 1.08441 2.47918C1.02501 2.3409 0.994385 2.19199 0.994385 2.0415C0.994385 1.891 1.02501 1.74209 1.08441 1.60381C1.1438 1.46554 1.23072 1.3408 1.33986 1.23719C1.44901 1.13358 1.5781 1.05326 1.71927 1.00114C1.86045 0.949016 2.01076 0.926171 2.16105 0.933995H4.80205C5.49783 0.931247 6.17581 1.15381 6.73459 1.56839C7.29338 1.98297 7.70295 2.5673 7.90205 3.234L8.53305 5.37399H25.493C25.834 5.3738 26.1703 5.45336 26.475 5.60634C26.7798 5.75931 27.0445 5.98145 27.248 6.255C27.446 6.52107 27.578 6.83024 27.6335 7.15718C27.6889 7.48412 27.6662 7.81954 27.567 8.13599L25.28 15.396C25.0616 16.033 24.6488 16.5854 24.0999 16.9754C23.5509 17.3654 22.8934 17.5734 22.22 17.57V17.566ZM25.494 7.587H25.505H25.494Z" fill="#1977F3"/>
<path opacity="100" d="M13.249 23.11C12.8103 23.11 12.3815 22.9799 12.0168 22.7362C11.652 22.4925 11.3677 22.1461 11.1998 21.7408C11.032 21.3355 10.988 20.8895 11.0736 20.4593C11.1592 20.029 11.3705 19.6338 11.6806 19.3236C11.9908 19.0134 12.386 18.8022 12.8163 18.7166C13.2465 18.631 13.6925 18.6749 14.0978 18.8428C14.5031 19.0107 14.8495 19.295 15.0932 19.6597C15.3369 20.0245 15.467 20.4533 15.467 20.892C15.4665 21.4801 15.2326 22.0439 14.8168 22.4598C14.4009 22.8756 13.8371 23.1095 13.249 23.11V23.11Z" fill="#1977F3"/>
<path opacity="100" d="M21.0111 23.11C20.5724 23.11 20.1436 22.9799 19.7788 22.7362C19.4141 22.4925 19.1298 22.1461 18.9619 21.7408C18.7941 21.3355 18.7501 20.8895 18.8357 20.4593C18.9213 20.029 19.1325 19.6338 19.4427 19.3236C19.7529 19.0134 20.1481 18.8022 20.5784 18.7166C21.0086 18.631 21.4546 18.6749 21.8599 18.8428C22.2652 19.0107 22.6116 19.295 22.8553 19.6597C23.099 20.0245 23.2291 20.4533 23.2291 20.892C23.2286 21.4801 22.9947 22.0439 22.5789 22.4598C22.163 22.8756 21.5992 23.1095 21.0111 23.11V23.11Z" fill="#1977F3"/>
</svg>
