<svg width="30" height="23" viewBox="0 0 30 23" fill="none" xmlns="http://www.w3.org/2000/svg">
<path opacity="100" d="M24.232 15.098C23.9774 15.0069 23.7582 14.8374 23.606 14.6139C23.4538 14.3904 23.3764 14.1243 23.385 13.854C24.3328 13.3407 25.0989 12.5473 25.5787 11.5821C26.0585 10.617 26.2284 9.5272 26.0654 8.46177C25.9023 7.39635 25.4142 6.40728 24.6678 5.62978C23.9213 4.85228 22.9529 4.32429 21.895 4.11799C20.854 3.92299 19.22 3.89799 18.551 4.89699C18.187 5.44699 18.416 6.05699 18.441 6.65799C18.4655 7.33665 18.4087 8.0158 18.272 8.68099C18.048 9.49617 17.7649 10.294 17.425 11.068C16.748 13.007 18.983 13.913 19.965 15.149C21.1246 16.4771 21.7824 18.1694 21.824 19.932V20.474C21.8087 20.7853 21.8579 21.0964 21.9685 21.3877C22.0792 21.6791 22.2489 21.9444 22.467 22.167C22.6834 22.3595 22.9406 22.5006 23.2192 22.5797C23.4978 22.6588 23.7907 22.674 24.076 22.624H27.754C27.9202 22.6326 28.0864 22.6076 28.2427 22.5504C28.399 22.4933 28.5422 22.4051 28.6636 22.2913C28.785 22.1774 28.8821 22.0403 28.9492 21.888C29.0163 21.7357 29.052 21.5714 29.054 21.405V20.322C29.049 18.087 26.95 16.021 24.232 15.098ZM19.508 19.932V21.414C19.508 21.577 19.4758 21.7384 19.4132 21.8888C19.3506 22.0393 19.2588 22.1759 19.1432 22.2908C19.0276 22.4057 18.8904 22.4966 18.7395 22.5582C18.5886 22.6199 18.427 22.651 18.264 22.65H1.73802C1.57503 22.651 1.41345 22.6199 1.26256 22.5582C1.11168 22.4966 0.974481 22.4057 0.858859 22.2908C0.743237 22.1759 0.651477 22.0393 0.588863 21.8888C0.526248 21.7384 0.494015 21.577 0.494019 21.414V19.932C0.494019 17.325 2.89402 14.954 6.07302 13.832C6.36249 13.7231 6.6109 13.5269 6.78382 13.2704C6.95673 13.014 7.04557 12.7102 7.03802 12.401C5.73686 11.7078 4.73012 10.5676 4.20335 9.19065C3.67657 7.81367 3.66527 6.2927 4.17151 4.90804C4.67775 3.52339 5.66743 2.36839 6.95814 1.6559C8.24884 0.943422 9.75358 0.721484 11.195 1.03099C12.3752 1.25394 13.4619 1.82434 14.3157 2.66905C15.1695 3.51377 15.7515 4.59427 15.987 5.77199C16.2566 7.05352 16.1087 8.38772 15.5649 9.57904C15.021 10.7704 14.1099 11.7562 12.965 12.392C12.9531 12.7077 13.0429 13.0189 13.2214 13.2797C13.3998 13.5404 13.6574 13.7368 13.956 13.84C17.105 14.949 19.51 17.319 19.51 19.927L19.508 19.932Z" fill="#1977F3"/>
</svg>
