<svg width="19" height="12" viewBox="0 0 19 12" fill="none" xmlns="http://www.w3.org/2000/svg">
<path d="M10.738 1.18768e-05H2.077C1.52663 0.00159492 0.999258 0.220926 0.610088 0.610096C0.220917 0.999267 0.00158304 1.52664 0 2.07701L0 9.07701C0.00158304 9.62737 0.220917 10.1548 0.610088 10.5439C0.999258 10.9331 1.52663 11.1524 2.077 11.154H10.738C11.2884 11.1524 11.8157 10.9331 12.2049 10.5439C12.5941 10.1548 12.8134 9.62737 12.815 9.07701V2.07701C12.8159 1.80399 12.7628 1.5335 12.6588 1.28109C12.5547 1.02868 12.4018 0.799341 12.2087 0.606289C12.0157 0.413238 11.7863 0.260283 11.5339 0.156231C11.2815 0.0521799 11.011 -0.000912933 10.738 1.18768e-05Z" fill="#F31954"/>
<path d="M17.45 1.14299C17.3245 1.16953 17.2049 1.21867 17.097 1.288L13.85 3.162V7.98099L17.111 9.85C17.2523 9.93292 17.4087 9.9869 17.571 10.0088C17.7334 10.0307 17.8985 10.0201 18.0567 9.97754C18.2149 9.93501 18.3631 9.86142 18.4926 9.76107C18.6221 9.66071 18.7303 9.53559 18.811 9.39299C18.9191 9.2031 18.9763 8.98849 18.977 8.76999V2.35199C18.9755 2.16514 18.9321 1.98101 18.8501 1.81312C18.7681 1.64524 18.6494 1.49788 18.5029 1.38189C18.3564 1.2659 18.1858 1.18423 18.0036 1.14289C17.8213 1.10155 17.6322 1.10158 17.45 1.14299Z" fill="#F31954"/>
<path d="M4.09198 5.85C5.06123 5.85 5.84698 5.06426 5.84698 4.095C5.84698 3.12574 5.06123 2.34 4.09198 2.34C3.12272 2.34 2.33698 3.12574 2.33698 4.095C2.33698 5.06426 3.12272 5.85 4.09198 5.85Z" fill="white"/>
</svg>
