<svg width="19" height="12" viewBox="0 0 19 12" fill="none" xmlns="http://www.w3.org/2000/svg">
<path d="M9.53702 2.901C8.9856 2.901 8.44658 3.06452 7.9881 3.37086C7.52961 3.67721 7.17226 4.11265 6.96124 4.62209C6.75023 5.13153 6.69502 5.69209 6.8026 6.23291C6.91017 6.77373 7.1757 7.27051 7.56561 7.66042C7.95552 8.05032 8.45228 8.31586 8.9931 8.42343C9.53392 8.53101 10.0945 8.47579 10.6039 8.26477C11.1134 8.05375 11.5488 7.69641 11.8552 7.23793C12.1615 6.77945 12.325 6.24041 12.325 5.689C12.3245 4.94973 12.0306 4.24091 11.5078 3.71817C10.9851 3.19543 10.2763 2.90153 9.53702 2.901ZM9.32503 4.86301C9.15702 4.86431 8.99626 4.93163 8.87746 5.05043C8.75865 5.16923 8.69133 5.32999 8.69002 5.498H7.76701C7.77169 5.08625 7.93734 4.69268 8.22852 4.4015C8.51969 4.11033 8.91327 3.94468 9.32503 3.94V4.86301Z" fill="#1977F3"/>
<path d="M18.003 5.11301C17.061 3.94001 13.695 0.113007 9.542 0.113007C5.389 0.113007 2.022 3.93701 1.078 5.11301C0.94721 5.27689 0.875977 5.48033 0.875977 5.69C0.875977 5.89967 0.94721 6.10313 1.078 6.26701C2.02 7.44001 5.386 11.267 9.539 11.267C13.692 11.267 17.058 7.44001 18 6.26701C18.1312 6.10347 18.203 5.9002 18.2035 5.69053C18.2041 5.48086 18.1334 5.27722 18.003 5.11301ZM9.541 9.728C8.74232 9.7282 7.96151 9.49155 7.29733 9.04797C6.63316 8.60439 6.11544 7.9738 5.80966 7.23597C5.50388 6.49814 5.42377 5.6862 5.57947 4.90284C5.73516 4.11948 6.11966 3.39988 6.68435 2.83506C7.24903 2.27024 7.96853 1.88556 8.75186 1.72967C9.53518 1.57378 10.3471 1.65368 11.085 1.95928C11.823 2.26488 12.4537 2.78244 12.8974 3.44651C13.3411 4.11058 13.578 4.89132 13.578 5.69C13.578 6.76077 13.1527 7.7877 12.3956 8.54494C11.6386 9.30219 10.6118 9.72774 9.541 9.728Z" fill="#1977F3"/>
</svg>
