<svg width="27" height="23" viewBox="0 0 27 23" fill="none" xmlns="http://www.w3.org/2000/svg">
<path opacity="100" d="M10.9769 8.57401V13.959L15.2859 11.266L10.9769 8.57401Z" fill="#1977F3"/>
<path opacity="100" d="M4.31798 22.221H21.839C22.9552 22.2197 24.0255 21.7759 24.8152 20.987C25.6048 20.1981 26.0496 19.1283 26.052 18.012V4.52501C26.0507 3.40806 25.6064 2.33724 24.8166 1.54743C24.0268 0.757628 22.9559 0.313335 21.839 0.312012H4.31798C3.20103 0.313335 2.13021 0.757628 1.3404 1.54743C0.550597 2.33724 0.106304 3.40806 0.10498 4.52501V18.012C0.107361 19.1283 0.552122 20.1981 1.34181 20.987C2.1315 21.7759 3.20172 22.2197 4.31798 22.221V22.221ZM9.29598 7.05301C9.29579 6.90244 9.33597 6.75458 9.41235 6.62482C9.48872 6.49507 9.5985 6.38816 9.73023 6.31525C9.86197 6.24233 10.0108 6.20608 10.1614 6.21026C10.3119 6.21444 10.4585 6.2589 10.586 6.33901L17.318 10.552C17.4393 10.6276 17.5394 10.7329 17.6087 10.8579C17.6781 10.9829 17.7145 11.1235 17.7145 11.2665C17.7145 11.4095 17.6781 11.5501 17.6087 11.6751C17.5394 11.8001 17.4393 11.9054 17.318 11.981L10.577 16.194C10.4495 16.2741 10.3029 16.3186 10.1524 16.3228C10.0018 16.3269 9.85297 16.2907 9.72123 16.2178C9.5895 16.1449 9.47973 16.038 9.40335 15.9082C9.32697 15.7784 9.28679 15.6306 9.28698 15.48L9.29598 7.05301Z" fill="#1977F3"/>
</svg>
